<svg width="87" height="98" viewBox="0 0 87 98" fill="none" xmlns="http://www.w3.org/2000/svg">
    <path d="M36.148 52.2766C26.2763 54.4842 22.4984 57.7191 24.8141 61.9812C27.0902 66.1703 29.6175 62.5486 27.5901 60.251C25.5626 57.9535 20.9984 59.5103 16.5322 65.1768C11.7401 71.2569 7.31746 73.6932 3.26436 72.4857"
          stroke="#FFC8C8" stroke-width="3" stroke-linecap="round"/>
    <path d="M45.55 39.8221L34.4946 33.8097C33.8037 33.4339 34.0867 32.4 34.855 32.3724L81.778 26.8603C82.4312 26.7701 82.8654 27.6002 82.4294 28.1054L60.0314 60.0211C59.6596 60.4127 58.8912 60.4403 58.7383 59.9117L50.1134 45.8672L42.0155 50.0747C41.3491 50.4547 40.5562 49.7265 40.9412 49.045L45.55 39.8221ZM46.7807 38.7097L74.7068 29.2506L47.7028 31.4882L37.4527 33.6367L41.7025 36.8051L46.7807 38.7097ZM79.2771 29.9544C75.9391 31.5593 72.3705 33.396 68.5713 35.4645C64.772 37.5331 59.0636 40.7473 51.446 45.1073L54.9144 51.933L59.4705 58.0828L69.2331 45.4925L79.2771 29.9544ZM50.2998 44.9359L80.2426 28.0625L57.6808 36.1312L47.1886 40.1193L44.7176 43.4652L43.4272 47.576L50.2998 44.9359Z"
          fill="#FFC8C8" stroke="#FFC8C8"/>
</svg>
