<svg width="524" height="329" viewBox="0 0 524 329" fill="none" xmlns="http://www.w3.org/2000/svg">
<path fill-rule="evenodd" clip-rule="evenodd" d="M2.74397 3.37053C20.9224 7.08066 34.1571 9.08072 42.448 9.3707C54.8843 9.80567 133.148 3.37053 148.447 3.37053C163.747 3.37053 252.328 0 268.079 0C283.83 0 357.124 5.53214 372.514 5.53214C382.774 5.53214 433.138 3.68809 523.608 0C516.864 47.0461 513.493 73.9668 513.493 80.7621C513.493 90.955 523.117 125.719 523.608 141.048C524.099 156.377 516.053 226.955 516.053 241.966C516.053 251.974 517.664 279.531 520.887 324.637C441.745 319.315 395.904 316.654 383.365 316.654C364.556 316.654 305.417 326.484 290.637 326.924C275.857 327.364 129.357 324.637 110.324 324.637C97.6357 324.637 60.8632 326.087 0.00630127 328.988C3.56887 285.014 5.3502 257.724 5.3502 247.117C5.3502 231.207 -0.212711 163.278 0.00630127 149.715C0.225314 136.151 8.03632 92.3119 8.03632 80.7621C8.03632 73.0623 6.27221 47.2651 2.74397 3.37053Z" fill="white"/>
</svg>
